<?xml version="1.0" encoding="UTF-8" standalone="no"?>
<!-- Created with Inkscape (http://www.inkscape.org/) -->
<svg xmlns:dc="http://purl.org/dc/elements/1.1/" xmlns:cc="http://creativecommons.org/ns#" xmlns:rdf="http://www.w3.org/1999/02/22-rdf-syntax-ns#" xmlns:svg="http://www.w3.org/2000/svg" xmlns="http://www.w3.org/2000/svg" xmlns:sodipodi="http://sodipodi.sourceforge.net/DTD/sodipodi-0.dtd" xmlns:inkscape="http://www.inkscape.org/namespaces/inkscape" width="135.94908" height="141.88864" id="svg2" version="1.1" inkscape:version="0.48.0 r9654" sodipodi:docname="2011-02-15 Cartoon carrot.svg">
  <title id="title4179">Cartoon Carrot</title>
  <defs id="defs4"/>
  <sodipodi:namedview id="base" pagecolor="#ffffff" bordercolor="#666666" borderopacity="1.0" inkscape:pageopacity="0.0" inkscape:pageshadow="2" inkscape:zoom="0.98994949" inkscape:cx="-66.320902" inkscape:cy="-1.9331864" inkscape:document-units="px" inkscape:current-layer="layer1" showgrid="false" inkscape:window-width="1280" inkscape:window-height="962" inkscape:window-x="-8" inkscape:window-y="-8" inkscape:window-maximized="1" fit-margin-top="5" fit-margin-right="5" fit-margin-bottom="5" fit-margin-left="5"/>
  <g inkscape:label="Layer 1" inkscape:groupmode="layer" id="layer1" transform="translate(-18.309097,-15.778817)">
    <g id="g4170" transform="translate(-101.01525,-735.39106)">
      <path id="path4058" d="m 154.30387,758.05663 c -2.16726,-0.031 -2.23398,2.78375 -2.404,8.93701 -0.20925,7.57326 1.27298,8.63299 3.20882,11.7181 1.93583,3.0851 -8.00212,-3.24415 -8.3954,-7.29717 -0.39328,-4.05302 -0.88026,-4.58856 -6.43398,-4.74201 -3.09156,-0.0854 -2.85544,4.4609 -2.04831,8.50917 -0.69922,-0.64437 -1.09342,-1.0074 -1.67666,-1.5469 -3.94142,-3.64578 -3.55813,0.92397 -3.66973,4.96304 -0.0588,2.12891 0.0197,4.25056 0.17359,6.16339 -0.94226,-0.38968 -1.78123,-0.74048 -2.8437,-1.17274 -7.99443,-3.2525 -1.513,0.44982 -1.7083,7.51819 -0.1953,7.06837 2.81557,7.14141 8.0318,1.2223 5.21624,-5.91909 28.49062,10.91607 28.49062,10.91607 0,0 14.30865,-5.16498 10.87211,-8.79682 -3.43653,-3.63184 -10.27336,-11.92582 -9.54527,-19.99001 0.72808,-8.06419 1.6242,-4.47445 1.83346,-12.04771 0.18654,-6.75132 -1.57225,-1.52307 -7.76657,2.75529 0.21713,-0.46843 0.42828,-0.95495 0.66533,-1.45093 2.14508,-4.48815 -0.92352,-3.57414 -4.92074,-5.20039 -0.74948,-0.30493 -1.36293,-0.45073 -1.86307,-0.45788 z" style="fill:#51bd0a;fill-opacity:1;stroke:#004d00;stroke-width:3.773;stroke-linecap:butt;stroke-linejoin:miter;stroke-miterlimit:4;stroke-opacity:1;stroke-dasharray:none" inkscape:connector-curvature="0"/>
      <path inkscape:connector-curvature="0" id="path4058-7" d="m 141.24272,767.39536 c -3.09155,-0.0854 -2.85543,4.46091 -2.0483,8.50918 -0.69922,-0.64437 -1.09341,-1.00741 -1.67666,-1.5469 -3.94142,-3.64579 -3.55813,0.92396 -3.66973,4.96303 -0.0588,2.12891 0.0197,4.25057 0.17358,6.1634 -0.94225,-0.38969 -1.78123,-0.74048 -2.84369,-1.17274 -7.99444,-3.25251 -1.513,0.44981 -1.7083,7.51818 -0.19531,7.06838 2.81556,7.14141 8.0318,1.22231 5.21624,-5.9191 28.49061,10.91607 28.49061,10.91607 0,0 14.30866,-5.16499 10.87212,-8.79682 -1.25829,-1.32979 -2.99577,-3.29024 -4.62752,-5.62996 -0.58059,0.14777 -1.32347,0.21353 -2.28729,0.1869 -8.58302,-0.23716 -11.65799,1.18861 -15.16427,0.0812 -3.50629,-1.10741 -8.39768,-6.29572 -10.48965,-22.01687 -0.009,-0.0644 -0.0187,-0.12374 -0.0261,-0.18829 -0.79873,-0.11211 -1.75934,-0.17366 -3.02664,-0.20868 z" style="opacity:0.16371681;fill:#054e0a;fill-opacity:1;stroke:none"/>
      <path transform="matrix(0.18867434,0,0,0.18867434,117.67295,726.92687)" inkscape:connector-curvature="0" id="path3010" d="m 227.71429,354.07646 c 42.85715,-37.14286 96.09229,-124.77255 188.57143,-40 34.28571,31.42857 77.77998,95.68583 124.16998,176.02875 C 586.84569,570.44813 636.1314,666.87671 682,762.64789 705.7394,812.2145 705.47995,903.4527 519.14286,788.36217 324.85714,668.36217 280.99004,610.14143 182,491.21932 c -30.82808,-37.03545 2.85715,-100 45.71429,-137.14286 z" style="fill:#d13c0a;fill-opacity:1;stroke:#5e2800;stroke-width:19.99741936;stroke-linecap:butt;stroke-linejoin:miter;stroke-miterlimit:4;stroke-opacity:1;stroke-dasharray:none"/>
      <path transform="matrix(0.18867434,0,0,0.18867434,117.67295,726.92687)" inkscape:connector-curvature="0" id="path3010-1" d="m 284.88981,301.28907 c -21.48332,16.60221 -39.68902,38.6909 -56.34375,53.125 -42.85714,37.14286 -76.54683,100.08955 -45.71875,137.125 98.99004,118.92215 142.83928,177.15625 337.125,297.15625 186.33709,115.0905 186.6144,23.8479 162.875,-25.7188 -5.21488,-10.8883 -10.48731,-21.7754 -15.78125,-32.6562 -53.09707,7.2713 -122.54069,-8.9211 -210.5625,-75.9062 C 248.94559,496.47635 254.77498,370.61799 284.88981,301.28907 z" style="opacity:0.10619471;fill:#513c0a;fill-opacity:1;stroke:none"/>
      <path transform="matrix(0.18867434,0,0,0.18867434,117.67295,726.92687)" inkscape:connector-curvature="0" id="path3790" d="m 291.42857,498.07647 c 0,0 11.42857,57.14286 97.14286,-22.85714" style="fill:none;stroke:#861600;stroke-width:15;stroke-linecap:butt;stroke-linejoin:miter;stroke-miterlimit:4;stroke-opacity:1;stroke-dasharray:none"/>
      <path transform="matrix(0.18867434,0,0,0.18867434,117.67295,726.92687)" inkscape:connector-curvature="0" id="path3792" d="m 405.71429,623.79075 c 0,0 40,11.42858 102.85714,-62.85714" style="fill:none;stroke:#861600;stroke-width:15;stroke-linecap:butt;stroke-linejoin:miter;stroke-miterlimit:4;stroke-opacity:1;stroke-dasharray:none"/>
      <path transform="matrix(0.18867434,0,0,0.18867434,117.67295,726.92687)" inkscape:connector-curvature="0" id="path3794" d="m 508.57143,698.07647 c 0,0 40,22.85714 57.14286,-17.14286" style="fill:none;stroke:#861600;stroke-width:15;stroke-linecap:butt;stroke-linejoin:miter;stroke-miterlimit:4;stroke-opacity:1;stroke-dasharray:none"/>
    </g>
  </g>
  <metadata>
    <rdf:RDF>
      <cc:Work>
        <dc:format>image/svg+xml</dc:format>
        <dc:type rdf:resource="http://purl.org/dc/dcmitype/StillImage"/>
        <cc:license rdf:resource="http://creativecommons.org/licenses/publicdomain/"/>
        <dc:publisher>
          <cc:Agent rdf:about="http://openclipart.org/">
            <dc:title>Open Clip Art Library</dc:title>
          </cc:Agent>
        </dc:publisher>
        <dc:title>Cartoon carrot </dc:title>
        <dc:date>2013-01-02T11:53:13</dc:date>
        <dc:description>A cartoon-styled carrot</dc:description>
        <dc:source>http://openclipart.org/detail/174019/cartoon-carrot--by-bogdanco-174019</dc:source>
        <dc:creator>
          <cc:Agent>
            <dc:title>bogdanco</dc:title>
          </cc:Agent>
        </dc:creator>
        <dc:subject>
          <rdf:Bag>
            <rdf:li>cartoon</rdf:li>
            <rdf:li>carrot</rdf:li>
          </rdf:Bag>
        </dc:subject>
      </cc:Work>
      <cc:License rdf:about="http://creativecommons.org/licenses/publicdomain/">
        <cc:permits rdf:resource="http://creativecommons.org/ns#Reproduction"/>
        <cc:permits rdf:resource="http://creativecommons.org/ns#Distribution"/>
        <cc:permits rdf:resource="http://creativecommons.org/ns#DerivativeWorks"/>
      </cc:License>
    </rdf:RDF>
  </metadata>
</svg>
