<?xml version="1.0" encoding="UTF-8" standalone="no"?>
<!-- Created with Inkscape (http://www.inkscape.org/) -->
<svg xmlns:dc="http://purl.org/dc/elements/1.1/" xmlns:cc="http://creativecommons.org/ns#" xmlns:rdf="http://www.w3.org/1999/02/22-rdf-syntax-ns#" xmlns:svg="http://www.w3.org/2000/svg" xmlns="http://www.w3.org/2000/svg" xmlns:xlink="http://www.w3.org/1999/xlink" xmlns:sodipodi="http://sodipodi.sourceforge.net/DTD/sodipodi-0.dtd" xmlns:inkscape="http://www.inkscape.org/namespaces/inkscape" width="168" height="138" id="svg2" version="1.1" inkscape:version="0.48.2 r9819" sodipodi:docname="Gato.svg">
  <title id="title4054">Cute cat. Gatito</title>
  <defs id="defs4">
    <linearGradient id="linearGradient3915">
      <stop id="stop3917" offset="0" style="stop-color:#000000;stop-opacity:1"/>
      <stop id="stop3919" offset="1" style="stop-color:#ffffff;stop-opacity:1"/>
    </linearGradient>
    <linearGradient id="linearGradient3906" inkscape:collect="always">
      <stop id="stop3908" offset="0" style="stop-color:#000000;stop-opacity:1;"/>
      <stop id="stop3910" offset="1" style="stop-color:#999999;stop-opacity:1"/>
    </linearGradient>
    <linearGradient id="linearGradient3900" inkscape:collect="always">
      <stop id="stop3902" offset="0" style="stop-color:#000000;stop-opacity:1;"/>
      <stop id="stop3904" offset="1" style="stop-color:#999999;stop-opacity:1"/>
    </linearGradient>
    <linearGradient id="linearGradient3894" inkscape:collect="always">
      <stop id="stop3896" offset="0" style="stop-color:#000000;stop-opacity:1;"/>
      <stop id="stop3898" offset="1" style="stop-color:#999999;stop-opacity:1"/>
    </linearGradient>
    <linearGradient id="linearGradient3888" inkscape:collect="always">
      <stop id="stop3890" offset="0" style="stop-color:#000000;stop-opacity:1;"/>
      <stop id="stop3892" offset="1" style="stop-color:#b3b3b3;stop-opacity:1"/>
    </linearGradient>
    <linearGradient inkscape:collect="always" id="linearGradient3825">
      <stop style="stop-color:#808080;stop-opacity:1" offset="0" id="stop3827"/>
      <stop style="stop-color:#ececec;stop-opacity:1" offset="1" id="stop3829"/>
    </linearGradient>
    <linearGradient id="linearGradient3815">
      <stop style="stop-color:#000000;stop-opacity:1" offset="0" id="stop3817"/>
      <stop style="stop-color:#cccccc;stop-opacity:1" offset="1" id="stop3819"/>
    </linearGradient>
    <linearGradient inkscape:collect="always" id="linearGradient3805">
      <stop style="stop-color:#000000;stop-opacity:1" offset="0" id="stop3807"/>
      <stop style="stop-color:#b3b3b3;stop-opacity:1" offset="1" id="stop3809"/>
    </linearGradient>
    <radialGradient inkscape:collect="always" xlink:href="#linearGradient3815" id="radialGradient4101" gradientUnits="userSpaceOnUse" gradientTransform="matrix(1.764918,-0.73428726,0.63494819,1.5261432,-115.86231,68.142044)" cx="119.93379" cy="37.991821" fx="119.93379" fy="37.991821" r="28.522547"/>
    <radialGradient inkscape:collect="always" xlink:href="#linearGradient3825" id="radialGradient4103" gradientUnits="userSpaceOnUse" gradientTransform="matrix(1.5458901,-0.77212175,0.63942403,1.2802107,-83.165193,79.853491)" cx="114.97063" cy="31.909773" fx="114.97063" fy="31.909773" r="27.522547"/>
    <radialGradient inkscape:collect="always" xlink:href="#linearGradient3915" id="radialGradient4105" gradientUnits="userSpaceOnUse" gradientTransform="matrix(1.7506803,-0.8229698,0.69051107,1.4688999,-116.26567,80.952859)" cx="119.93379" cy="37.991821" fx="119.93379" fy="37.991821" r="28.522547"/>
    <radialGradient inkscape:collect="always" xlink:href="#linearGradient3825" id="radialGradient4107" gradientUnits="userSpaceOnUse" gradientTransform="matrix(1.5458901,-0.77212175,0.63942403,1.2802107,-83.165193,79.853491)" cx="114.97063" cy="31.909773" fx="114.97063" fy="31.909773" r="27.522547"/>
    <radialGradient inkscape:collect="always" xlink:href="#linearGradient3805" id="radialGradient4109" gradientUnits="userSpaceOnUse" gradientTransform="matrix(1.8847693,-1.6390192e-5,0,1.6330259,-115.29607,-64.041804)" cx="130.312" cy="100.9211" fx="130.312" fy="100.9211" r="67.87072"/>
    <radialGradient inkscape:collect="always" xlink:href="#linearGradient3900" id="radialGradient4111" gradientUnits="userSpaceOnUse" gradientTransform="matrix(2.5900002,0.19702518,-0.65572878,8.6199184,493.96598,-680.095)" cx="-107.5845" cy="86.192932" fx="-107.5845" fy="86.192932" r="3.2702336"/>
    <radialGradient inkscape:collect="always" xlink:href="#linearGradient3906" id="radialGradient4113" gradientUnits="userSpaceOnUse" gradientTransform="matrix(2.5900002,0.19702518,-0.65572878,8.6199184,219.48796,-628.47737)" cx="-107.5845" cy="86.192932" fx="-107.5845" fy="86.192932" r="3.2702336"/>
    <radialGradient inkscape:collect="always" xlink:href="#linearGradient3888" id="radialGradient4115" gradientUnits="userSpaceOnUse" gradientTransform="matrix(2.5900002,0.19702518,-0.65572878,8.6199184,444.44438,-943.44475)" cx="-107.5845" cy="86.192932" fx="-107.5845" fy="86.192932" r="3.2702336"/>
    <radialGradient inkscape:collect="always" xlink:href="#linearGradient3894" id="radialGradient4117" gradientUnits="userSpaceOnUse" gradientTransform="matrix(2.5900002,0.19702518,-0.65572878,8.6199184,169.96636,-891.82712)" cx="-107.5845" cy="86.192932" fx="-107.5845" fy="86.192932" r="3.2702336"/>
  </defs>
  <sodipodi:namedview id="base" pagecolor="#ffffff" bordercolor="#666666" borderopacity="1.0" inkscape:pageopacity="0.0" inkscape:pageshadow="2" inkscape:zoom="1.7959493" inkscape:cx="233.2654" inkscape:cy="28.775513" inkscape:document-units="px" inkscape:current-layer="layer1" showgrid="false" inkscape:window-width="1304" inkscape:window-height="746" inkscape:window-x="54" inkscape:window-y="-8" inkscape:window-maximized="1" fit-margin-top="0" fit-margin-left="0" fit-margin-right="0" fit-margin-bottom="0"/>
  <g inkscape:label="Capa 1" inkscape:groupmode="layer" id="layer1" transform="translate(-56.476966,-25.920616)">
    <g id="g4066" transform="translate(2.784043,-1.6704258)">
      <g transform="translate(2.9916564,0)" id="g4007">
        <g id="g3839" transform="matrix(-1,0,0,1,263.27381,0)">
          <path transform="matrix(-0.94854855,-0.31663174,-0.31663174,0.94854855,304.79103,65.636446)" inkscape:transform-center-y="-0.84771188" inkscape:transform-center-x="4.7381827" d="M 107.11569,1.5202496 C 120.50263,-3.229954 149.72227,21.693667 147.1426,35.662196 144.56293,49.630725 108.36862,62.473868 97.561354,53.255543 86.754089,44.037217 93.728756,6.2704533 107.11569,1.5202496 z" inkscape:randomized="0" inkscape:rounded="0.27" inkscape:flatsided="true" sodipodi:arg2="-0.86457773" sodipodi:arg1="-1.9117753" sodipodi:r2="15.187237" sodipodi:r1="30.374474" sodipodi:cy="30.145996" sodipodi:cx="117.27322" sodipodi:sides="3" id="path3841" style="fill:#ffffff;fill-opacity:1;stroke:#ffffff;stroke-width:2;stroke-linecap:round;stroke-miterlimit:4;stroke-opacity:1;stroke-dasharray:none" sodipodi:type="star"/>
          <path sodipodi:type="star" style="fill:url(#radialGradient4101);fill-opacity:1;stroke:#ffffff;stroke-width:2;stroke-linecap:round;stroke-miterlimit:4;stroke-opacity:1;stroke-dasharray:none" id="path3843" sodipodi:sides="3" sodipodi:cx="117.27322" sodipodi:cy="30.145996" sodipodi:r1="30.374474" sodipodi:r2="15.187237" sodipodi:arg1="-1.9117753" sodipodi:arg2="-0.86457773" inkscape:flatsided="true" inkscape:rounded="0.27" inkscape:randomized="0" d="M 107.11569,1.5202496 C 120.50263,-3.229954 149.72227,21.693667 147.1426,35.662196 144.56293,49.630725 108.36862,62.473868 97.561354,53.255543 86.754089,44.037217 93.728756,6.2704533 107.11569,1.5202496 z" inkscape:transform-center-x="4.7381827" inkscape:transform-center-y="-0.84771188" transform="matrix(-0.94854855,-0.31663174,-0.31663174,0.94854855,304.79103,65.636446)"/>
          <path sodipodi:type="star" style="fill:#999999;fill-opacity:1;stroke:none" id="path3845" sodipodi:sides="3" sodipodi:cx="117.27322" sodipodi:cy="30.145996" sodipodi:r1="30.374474" sodipodi:r2="15.187237" sodipodi:arg1="-1.9117753" sodipodi:arg2="-0.86457773" inkscape:flatsided="true" inkscape:rounded="0.27" inkscape:randomized="0" d="M 107.11569,1.5202496 C 120.50263,-3.229954 149.72227,21.693667 147.1426,35.662196 144.56293,49.630725 108.36862,62.473868 97.561354,53.255543 86.754089,44.037217 93.728756,6.2704533 107.11569,1.5202496 z" inkscape:transform-center-x="2.5974109" inkscape:transform-center-y="-0.46470635" transform="matrix(-0.51998353,-0.17357392,-0.17357392,0.51998353,251.1409,62.687539)"/>
          <path transform="matrix(-0.51998353,-0.17357392,-0.17357392,0.51998353,251.1409,62.687539)" inkscape:transform-center-y="-0.46470635" inkscape:transform-center-x="2.5974109" d="M 107.11569,1.5202496 C 120.50263,-3.229954 149.72227,21.693667 147.1426,35.662196 144.56293,49.630725 108.36862,62.473868 97.561354,53.255543 86.754089,44.037217 93.728756,6.2704533 107.11569,1.5202496 z" inkscape:randomized="0" inkscape:rounded="0.27" inkscape:flatsided="true" sodipodi:arg2="-0.86457773" sodipodi:arg1="-1.9117753" sodipodi:r2="15.187237" sodipodi:r1="30.374474" sodipodi:cy="30.145996" sodipodi:cx="117.27322" sodipodi:sides="3" id="path3847" style="fill:url(#radialGradient4103);fill-opacity:1;stroke:none" sodipodi:type="star"/>
        </g>
        <g id="g3833" transform="translate(6.032963,0)">
          <path sodipodi:type="star" style="fill:#ffffff;fill-opacity:1;stroke:#ffffff;stroke-width:2;stroke-linecap:round;stroke-miterlimit:4;stroke-opacity:1;stroke-dasharray:none" id="path3761" sodipodi:sides="3" sodipodi:cx="117.27322" sodipodi:cy="30.145996" sodipodi:r1="30.374474" sodipodi:r2="15.187237" sodipodi:arg1="-1.9117753" sodipodi:arg2="-0.86457773" inkscape:flatsided="true" inkscape:rounded="0.27" inkscape:randomized="0" d="M 107.11569,1.5202496 C 120.50263,-3.229954 149.72227,21.693667 147.1426,35.662196 144.56293,49.630725 108.36862,62.473868 97.561354,53.255543 86.754089,44.037217 93.728756,6.2704533 107.11569,1.5202496 z" inkscape:transform-center-x="4.7381827" inkscape:transform-center-y="-0.84771188" transform="matrix(-0.94854855,-0.31663174,-0.31663174,0.94854855,304.79103,65.636446)"/>
          <path transform="matrix(-0.94854855,-0.31663174,-0.31663174,0.94854855,304.79103,65.636446)" inkscape:transform-center-y="-0.84771188" inkscape:transform-center-x="4.7381827" d="M 107.11569,1.5202496 C 120.50263,-3.229954 149.72227,21.693667 147.1426,35.662196 144.56293,49.630725 108.36862,62.473868 97.561354,53.255543 86.754089,44.037217 93.728756,6.2704533 107.11569,1.5202496 z" inkscape:randomized="0" inkscape:rounded="0.27" inkscape:flatsided="true" sodipodi:arg2="-0.86457773" sodipodi:arg1="-1.9117753" sodipodi:r2="15.187237" sodipodi:r1="30.374474" sodipodi:cy="30.145996" sodipodi:cx="117.27322" sodipodi:sides="3" id="path3813" style="fill:url(#radialGradient4105);fill-opacity:1;stroke:#ffffff;stroke-width:2;stroke-linecap:round;stroke-miterlimit:4;stroke-opacity:1;stroke-dasharray:none" sodipodi:type="star"/>
          <path transform="matrix(-0.51998353,-0.17357392,-0.17357392,0.51998353,251.1409,62.687539)" inkscape:transform-center-y="-0.46470635" inkscape:transform-center-x="2.5974109" d="M 107.11569,1.5202496 C 120.50263,-3.229954 149.72227,21.693667 147.1426,35.662196 144.56293,49.630725 108.36862,62.473868 97.561354,53.255543 86.754089,44.037217 93.728756,6.2704533 107.11569,1.5202496 z" inkscape:randomized="0" inkscape:rounded="0.27" inkscape:flatsided="true" sodipodi:arg2="-0.86457773" sodipodi:arg1="-1.9117753" sodipodi:r2="15.187237" sodipodi:r1="30.374474" sodipodi:cy="30.145996" sodipodi:cx="117.27322" sodipodi:sides="3" id="path3763" style="fill:#999999;fill-opacity:1;stroke:none" sodipodi:type="star"/>
          <path sodipodi:type="star" style="fill:url(#radialGradient4107);fill-opacity:1;stroke:none" id="path3823" sodipodi:sides="3" sodipodi:cx="117.27322" sodipodi:cy="30.145996" sodipodi:r1="30.374474" sodipodi:r2="15.187237" sodipodi:arg1="-1.9117753" sodipodi:arg2="-0.86457773" inkscape:flatsided="true" inkscape:rounded="0.27" inkscape:randomized="0" d="M 107.11569,1.5202496 C 120.50263,-3.229954 149.72227,21.693667 147.1426,35.662196 144.56293,49.630725 108.36862,62.473868 97.561354,53.255543 86.754089,44.037217 93.728756,6.2704533 107.11569,1.5202496 z" inkscape:transform-center-x="2.5974109" inkscape:transform-center-y="-0.46470635" transform="matrix(-0.51998353,-0.17357392,-0.17357392,0.51998353,251.1409,62.687539)"/>
        </g>
        <g id="g3934">
          <path d="m 202.22704,99.863541 c 0,31.874119 -30.38675,57.713199 -67.87072,57.713199 -37.48396,0 -67.870717,-25.83908 -67.870717,-57.713199 0,-31.87412 30.386757,-57.7132 67.870717,-57.7132 37.48397,0 67.87072,25.83908 67.87072,57.7132 z" sodipodi:ry="57.7132" sodipodi:rx="67.87072" sodipodi:cy="99.863541" sodipodi:cx="134.35632" id="path2985" style="fill:#ffffff;fill-opacity:1;stroke:#ffffff;stroke-width:2;stroke-miterlimit:4;stroke-opacity:1;stroke-dasharray:none" sodipodi:type="arc"/>
          <g transform="translate(0,-0.37395704)" id="g3923">
            <path style="fill:#800080;fill-opacity:1;stroke:none" d="m 111.81009,154.06393 c 0,0 15.73068,2.64693 23.6681,2.6177 7.44204,-0.0274 22.17228,-2.6177 22.17228,-2.6177 0.9468,-0.11178 1.72091,1.565 1.72091,3.50896 l 0,0.59477 c 0,1.94397 -0.76753,3.50897 -1.72091,3.50897 0,0 -14.73024,2.59029 -22.17228,2.6177 -7.93742,0.0292 -23.6681,-2.6177 -23.6681,-2.6177 -0.9476,-0.10481 -1.7209,-1.565 -1.7209,-3.50897 l 0,-0.59477 c 0,-1.94396 0.76752,-3.50896 1.7209,-3.50896 z" id="rect3912" inkscape:connector-curvature="0" sodipodi:nodetypes="sassssassss"/>
            <path d="m 202.22704,99.863541 c 0,31.874119 -30.38675,57.713199 -67.87072,57.713199 -37.48396,0 -67.870717,-25.83908 -67.870717,-57.713199 0,-31.87412 30.386757,-57.7132 67.870717,-57.7132 37.48397,0 67.87072,25.83908 67.87072,57.7132 z" sodipodi:ry="57.7132" sodipodi:rx="67.87072" sodipodi:cy="99.863541" sodipodi:cx="134.35632" id="path3803" style="fill:url(#radialGradient4109);fill-opacity:1;stroke:none" sodipodi:type="arc"/>
            <path sodipodi:type="arc" style="fill:#ffffff;fill-opacity:1;stroke:none" id="path3765" sodipodi:cx="82.183594" sodipodi:cy="213.90482" sodipodi:rx="28.625748" sodipodi:ry="25.855513" d="m 110.80934,213.90482 c 0,14.2796 -12.816182,25.85551 -28.625746,25.85551 -15.809564,0 -28.625748,-11.57591 -28.625748,-25.85551 0,-14.27961 12.816184,-25.85552 28.625748,-25.85552 15.809564,0 28.625746,11.57591 28.625746,25.85552 z" transform="matrix(0.75806452,0,0,0.75806452,44.353523,-52.385792)"/>
            <path transform="matrix(0.75806452,0,0,0.75806452,100.68161,-52.385792)" d="m 110.80934,213.90482 c 0,14.2796 -12.816182,25.85551 -28.625746,25.85551 -15.809564,0 -28.625748,-11.57591 -28.625748,-25.85551 0,-14.27961 12.816184,-25.85552 28.625748,-25.85552 15.809564,0 28.625746,11.57591 28.625746,25.85552 z" sodipodi:ry="25.855513" sodipodi:rx="28.625748" sodipodi:cy="213.90482" sodipodi:cx="82.183594" id="path3767" style="fill:#ffffff;fill-opacity:1;stroke:none" sodipodi:type="arc"/>
            <path sodipodi:type="arc" style="fill:#000000;fill-opacity:1;stroke:none" id="path3777" sodipodi:cx="20.776752" sodipodi:cy="206.05583" sodipodi:rx="6.9255838" sodipodi:ry="6.9255838" d="m 27.702336,206.05583 c 0,3.8249 -3.100689,6.92559 -6.925584,6.92559 -3.824894,0 -6.925583,-3.10069 -6.925583,-6.92559 0,-3.82489 3.100689,-6.92558 6.925583,-6.92558 3.824895,0 6.925584,3.10069 6.925584,6.92558 z" transform="translate(96.958175,-91.417708)"/>
            <path transform="translate(130.20098,-91.417708)" d="m 27.702336,206.05583 c 0,3.8249 -3.100689,6.92559 -6.925584,6.92559 -3.824894,0 -6.925583,-3.10069 -6.925583,-6.92559 0,-3.82489 3.100689,-6.92558 6.925583,-6.92558 3.824895,0 6.925584,3.10069 6.925584,6.92558 z" sodipodi:ry="6.9255838" sodipodi:rx="6.9255838" sodipodi:cy="206.05583" sodipodi:cx="20.776752" id="path3779" style="fill:#000000;fill-opacity:1;stroke:none" sodipodi:type="arc"/>
            <path sodipodi:type="star" style="fill:#ff5555;fill-opacity:1;stroke:none" id="path3783" sodipodi:sides="3" sodipodi:cx="245.62738" sodipodi:cy="175.12155" sodipodi:r1="8.7114439" sodipodi:r2="4.355722" sodipodi:arg1="0.52359878" sodipodi:arg2="1.5707963" inkscape:flatsided="true" inkscape:rounded="0.27" inkscape:randomized="0" d="m 253.17171,179.47727 c -2.03697,3.52814 -13.05169,3.52814 -15.08866,0 -2.03697,-3.52813 3.47039,-13.06716 7.54433,-13.06716 4.07394,0 9.5813,9.53903 7.54433,13.06716 z" inkscape:transform-center-y="-0.85481042" transform="translate(-111.27106,-39.400326)"/>
          </g>
        </g>
        <g id="g3957">
          <g id="g3945">
            <rect transform="matrix(0.18480591,0.98277504,0.98277504,-0.18480591,0,0)" ry="2.7702336" y="27.78544" x="156.89835" height="42.476913" width="5.5404673" id="rect3865" style="fill:url(#radialGradient4111);fill-opacity:1;stroke:#ffffff;stroke-width:1;stroke-opacity:1"/>
            <rect style="fill:url(#radialGradient4113);fill-opacity:1;stroke:#ffffff;stroke-width:1;stroke-opacity:1" id="rect3785" width="5.5404673" height="42.476913" x="-117.57967" y="79.403053" ry="2.7702336" transform="matrix(0.18480591,-0.98277504,0.98277504,0.18480591,0,0)"/>
          </g>
          <g id="g3953">
            <rect style="fill:url(#radialGradient4115);fill-opacity:1;stroke:#ffffff;stroke-width:1;stroke-opacity:1" id="rect3880" width="5.5404673" height="42.476913" x="107.37675" y="-235.56432" ry="2.7702336" transform="matrix(-0.18480591,0.98277504,-0.98277504,-0.18480591,0,0)"/>
            <rect transform="matrix(-0.18480591,-0.98277504,-0.98277504,0.18480591,0,0)" ry="2.7702336" y="-183.9467" x="-167.10127" height="42.476913" width="5.5404673" id="rect3882" style="fill:url(#radialGradient4117);fill-opacity:1;stroke:#ffffff;stroke-width:1;stroke-opacity:1"/>
          </g>
        </g>
      </g>
      <rect rx="0.83185571" ry="0.5545705" transform="matrix(0.8320503,-0.55470019,0.55470019,0.8320503,0,0)" y="195.58492" x="8.6052999" height="4.3441358" width="4.3441358" id="rect4056" style="fill:#ffffff;fill-opacity:1;stroke:none"/>
      <rect style="fill:#ffffff;fill-opacity:1;stroke:none" id="rect4058" width="4.3441358" height="4.3441358" x="5.2178721" y="202.33746" transform="matrix(0.80300678,-0.59596989,0.59596989,0.80300678,0,0)" ry="0.5545705" rx="0.83185571"/>
      <rect rx="0.83185571" ry="0.5545705" transform="matrix(0.70533081,-0.7088783,0.7088783,0.70533081,0,0)" y="208.33383" x="-19.546656" height="4.3441358" width="4.3441358" id="rect4060" style="fill:#ffffff;fill-opacity:1;stroke:none"/>
      <rect rx="0.83185571" ry="0.5545705" transform="matrix(-0.80300678,-0.59596989,-0.59596989,0.80300678,0,0)" y="39.303127" x="-214.92088" height="4.3441358" width="4.3441358" id="rect4062" style="fill:#ffffff;fill-opacity:1;stroke:none"/>
      <rect style="fill:#ffffff;fill-opacity:1;stroke:none" id="rect4064" width="4.3441358" height="4.3441358" x="-219.47806" y="43.863956" transform="matrix(-0.8320503,-0.55470019,-0.55470019,0.8320503,0,0)" ry="0.5545705" rx="0.83185571"/>
    </g>
  </g>
  <metadata>
    <rdf:RDF>
      <cc:Work>
        <dc:format>image/svg+xml</dc:format>
        <dc:type rdf:resource="http://purl.org/dc/dcmitype/StillImage"/>
        <cc:license rdf:resource="http://creativecommons.org/licenses/publicdomain/"/>
        <dc:publisher>
          <cc:Agent rdf:about="http://openclipart.org/">
            <dc:title>Open Clip Art Library</dc:title>
          </cc:Agent>
        </dc:publisher>
        <dc:title>Cute cat. Gatito</dc:title>
        <dc:date>2012-06-08T14:16:42</dc:date>
        <dc:description>A manga style cat face. Cabeza de gato en estilo de manga.</dc:description>
        <dc:source>http://openclipart.org/detail/170479/cute-cat.-gatito-by-ehecatl1138-170479</dc:source>
        <dc:creator>
          <cc:Agent>
            <dc:title>Ehecatl1138</dc:title>
          </cc:Agent>
        </dc:creator>
        <dc:subject>
          <rdf:Bag>
            <rdf:li>cute</rdf:li>
            <rdf:li>cat</rdf:li>
            <rdf:li>kitten</rdf:li>
            <rdf:li>kawaii</rdf:li>
            <rdf:li>manga</rdf:li>
            <rdf:li>lindo</rdf:li>
            <rdf:li>bonito</rdf:li>
            <rdf:li>gato</rdf:li>
            <rdf:li>gatito</rdf:li>
          </rdf:Bag>
        </dc:subject>
      </cc:Work>
      <cc:License rdf:about="http://creativecommons.org/licenses/publicdomain/">
        <cc:permits rdf:resource="http://creativecommons.org/ns#Reproduction"/>
        <cc:permits rdf:resource="http://creativecommons.org/ns#Distribution"/>
        <cc:permits rdf:resource="http://creativecommons.org/ns#DerivativeWorks"/>
      </cc:License>
    </rdf:RDF>
  </metadata>
</svg>
