<?xml version="1.0" encoding="UTF-8" standalone="no"?>
<!-- Created with Inkscape (http://www.inkscape.org/) -->
<svg xmlns:dc="http://purl.org/dc/elements/1.1/" xmlns:cc="http://web.resource.org/cc/" xmlns:rdf="http://www.w3.org/1999/02/22-rdf-syntax-ns#" xmlns:svg="http://www.w3.org/2000/svg" xmlns="http://www.w3.org/2000/svg" xmlns:sodipodi="http://sodipodi.sourceforge.net/DTD/sodipodi-0.dtd" xmlns:inkscape="http://www.inkscape.org/namespaces/inkscape" width="266.91641" height="364.19836" id="svg2593" sodipodi:version="0.32" inkscape:version="0.45.1" sodipodi:docbase="/home/felipe/Documentos/desenhos/biblioteca" sodipodi:docname="cabore.svg" inkscape:output_extension="org.inkscape.output.svg.inkscape" inkscape:export-filename="/home/felipe/Documentos/desenhos/livroaberto2.png" inkscape:export-xdpi="72.038658" inkscape:export-ydpi="72.038658" version="1.0">
  <defs id="defs2595"/>
  <sodipodi:namedview id="base" pagecolor="#ffffff" bordercolor="#666666" borderopacity="1.0" inkscape:pageopacity="0.0" inkscape:pageshadow="2" inkscape:zoom="1.6138741" inkscape:cx="189.15102" inkscape:cy="230.50125" inkscape:document-units="px" inkscape:current-layer="layer1" inkscape:window-width="1280" inkscape:window-height="949" inkscape:window-x="0" inkscape:window-y="25"/>
  <g inkscape:label="Camada 1" inkscape:groupmode="layer" id="layer1" transform="translate(-262.3851,-366.40306)">
    <g id="g11101" transform="translate(167.79232,170.76017)" inkscape:export-filename="/home/felipe/Documentos/desenhos/livroaberto2.png" inkscape:export-xdpi="27.959999" inkscape:export-ydpi="27.959999">
      <path sodipodi:nodetypes="csssc" id="path11103" d="M 216.23454,538.58554 C 216.23454,546.42362 213.75486,558.34126 209.10158,558.34126 C 204.44829,558.34126 201.96861,546.42362 201.96861,538.58554 C 201.96861,530.74746 204.01599,528.70768 208.66928,528.70768 C 213.32256,528.70768 216.23454,530.74746 216.23454,538.58554 z " style="fill:#ff7f00;fill-opacity:1;stroke:#000000;stroke-width:3;stroke-miterlimit:4;stroke-dasharray:none;stroke-opacity:1"/>
      <path sodipodi:nodetypes="csssc" id="path11105" d="M 232.39699,538.58554 C 232.39699,546.42362 229.91731,558.34126 225.26403,558.34126 C 220.61074,558.34126 218.13106,546.42362 218.13106,538.58554 C 218.13106,530.74746 220.17844,528.70768 224.83173,528.70768 C 229.48501,528.70768 232.39699,530.74746 232.39699,538.58554 z " style="fill:#ff7f00;fill-opacity:1;stroke:#000000;stroke-width:3;stroke-miterlimit:4;stroke-dasharray:none;stroke-opacity:1"/>
      <path sodipodi:nodetypes="csssc" id="path11107" d="M 223.30562,538.58554 C 223.30562,546.42362 220.82594,558.34126 216.17266,558.34126 C 211.51937,558.34126 209.03969,546.42362 209.03969,538.58554 C 209.03969,530.74746 211.08707,528.70768 215.74036,528.70768 C 220.39364,528.70768 223.30562,530.74746 223.30562,538.58554 z " style="fill:#ff7f00;fill-opacity:1;stroke:#000000;stroke-width:3;stroke-miterlimit:4;stroke-dasharray:none;stroke-opacity:1"/>
    </g>
    <g id="g11109" transform="translate(159.50661,129.90303)" inkscape:export-filename="/home/felipe/Documentos/desenhos/livroaberto2.png" inkscape:export-xdpi="27.959999" inkscape:export-ydpi="27.959999">
      <path sodipodi:nodetypes="csssc" id="path11111" d="M 259.05174,578.85182 C 259.05174,586.6899 256.57206,598.60754 251.91878,598.60754 C 247.26549,598.60754 244.78581,586.6899 244.78581,578.85182 C 244.78581,571.01374 246.83319,568.97396 251.48648,568.97396 C 256.13976,568.97396 259.05174,571.01374 259.05174,578.85182 z " style="fill:#ff7f00;fill-opacity:1;stroke:#000000;stroke-width:3;stroke-miterlimit:4;stroke-dasharray:none;stroke-opacity:1"/>
      <path sodipodi:nodetypes="csssc" id="path11113" d="M 275.21419,578.85182 C 275.21419,586.6899 272.73451,598.60754 268.08123,598.60754 C 263.42794,598.60754 260.94826,586.6899 260.94826,578.85182 C 260.94826,571.01374 262.99564,568.97396 267.64893,568.97396 C 272.30221,568.97396 275.21419,571.01374 275.21419,578.85182 z " style="fill:#ff7f00;fill-opacity:1;stroke:#000000;stroke-width:3;stroke-miterlimit:4;stroke-dasharray:none;stroke-opacity:1"/>
      <path sodipodi:nodetypes="csssc" id="path11115" d="M 266.12282,578.85182 C 266.12282,586.6899 263.64314,598.60754 258.98986,598.60754 C 254.33657,598.60754 251.85689,586.6899 251.85689,578.85182 C 251.85689,571.01374 253.90427,568.97396 258.55756,568.97396 C 263.21084,568.97396 266.12282,571.01374 266.12282,578.85182 z " style="fill:#ff7f00;fill-opacity:1;stroke:#000000;stroke-width:3;stroke-miterlimit:4;stroke-dasharray:none;stroke-opacity:1"/>
    </g>
    <path style="fill:#683d1b;fill-opacity:1;stroke:#000000;stroke-width:4.30345106;stroke-miterlimit:4;stroke-dasharray:none;stroke-opacity:1" d="M 416.47529,376.43091 C 438.92729,398.02047 410.22139,436.05627 389.94111,436.05627 C 369.66083,436.05627 356.26311,403.94598 356.26311,389.0226 C 356.26311,381.56091 370.58339,406.65171 377.23327,401.75836 C 383.88314,396.865 350.63005,373.18129 359.32473,369.39437 C 372.00047,363.87353 418.38093,386.8855 404.69003,400.27699 C 399.71182,405.14632 411.08308,367.01245 416.47529,376.43091 z " id="path5651" sodipodi:nodetypes="csssssc" inkscape:export-filename="/home/felipe/Documentos/desenhos/livroaberto2.png" inkscape:export-xdpi="27.959999" inkscape:export-ydpi="27.959999"/>
    <path sodipodi:type="arc" style="fill:#683d1b;fill-opacity:1;stroke:#1a1a1a;stroke-width:6.88469362;stroke-miterlimit:4;stroke-dasharray:none;stroke-opacity:1" id="path11117" sodipodi:cx="227.14285" sodipodi:cy="309.50504" sodipodi:rx="112.85714" sodipodi:ry="145.71428" d="M 339.99999 309.50504 A 112.85714 145.71428 0 1 1  114.28571,309.50504 A 112.85714 145.71428 0 1 1  339.99999 309.50504 z" transform="matrix(0.9997032,0,0,1.0340838,167.85974,241.21105)" inkscape:export-filename="/home/felipe/Documentos/desenhos/livroaberto2.png" inkscape:export-xdpi="27.959999" inkscape:export-ydpi="27.959999"/>
    <path sodipodi:type="arc" style="fill:#ffffff;fill-opacity:1;stroke:#1a1a1a;stroke-width:2.60605001;stroke-miterlimit:4;stroke-dasharray:none;stroke-opacity:1" id="path11119" sodipodi:cx="172.85715" sodipodi:cy="570.2193" sodipodi:rx="24.285715" sodipodi:ry="29.285715" d="M 197.14286 570.2193 A 24.285715 29.285715 0 1 1  148.57143,570.2193 A 24.285715 29.285715 0 1 1  197.14286 570.2193 z" transform="matrix(1.5798704,0,0,2.0253446,83.970415,-664.33969)" inkscape:export-filename="/home/felipe/Documentos/desenhos/livroaberto2.png" inkscape:export-xdpi="27.959999" inkscape:export-ydpi="27.959999"/>
    <path sodipodi:type="arc" style="fill:#ffffff;fill-opacity:1;stroke:#1a1a1a;stroke-width:2.60605001;stroke-miterlimit:4;stroke-dasharray:none;stroke-opacity:1" id="path11121" sodipodi:cx="172.85715" sodipodi:cy="570.2193" sodipodi:rx="24.285715" sodipodi:ry="29.285715" d="M 197.14286 570.2193 A 24.285715 29.285715 0 1 1  148.57143,570.2193 A 24.285715 29.285715 0 1 1  197.14286 570.2193 z" transform="matrix(1.5596767,0,0,2.0258451,162.70171,-664.6251)" inkscape:export-filename="/home/felipe/Documentos/desenhos/livroaberto2.png" inkscape:export-xdpi="27.959999" inkscape:export-ydpi="27.959999"/>
    <g id="g11129" transform="matrix(1.4228999,0,0,2.2489039,-459.90622,-963.33778)" inkscape:export-filename="/home/felipe/Documentos/desenhos/livroaberto2.png" inkscape:export-xdpi="27.959999" inkscape:export-ydpi="27.959999">
      <path transform="translate(193.57143,87.857151)" d="M 400 561.64789 A 7.8571429 9.2857141 0 1 1  384.28571,561.64789 A 7.8571429 9.2857141 0 1 1  400 561.64789 z" sodipodi:ry="9.2857141" sodipodi:rx="7.8571429" sodipodi:cy="561.64789" sodipodi:cx="392.14285" id="path11131" style="opacity:1;fill:#000000;fill-opacity:1;stroke:#1a1a1a;stroke-width:4;stroke-miterlimit:4;stroke-dasharray:none;stroke-opacity:1" sodipodi:type="arc"/>
      <path transform="matrix(0.5135895,0,0,0.7567948,344.36604,217.07805)" d="M 470 569.50507 A 2.8571429 5.7142859 0 1 1  464.28571,569.50507 A 2.8571429 5.7142859 0 1 1  470 569.50507 z" sodipodi:ry="5.7142859" sodipodi:rx="2.8571429" sodipodi:cy="569.50507" sodipodi:cx="467.14285" id="path11133" style="opacity:1;fill:#ffffff;fill-opacity:1;stroke:#ffffff;stroke-width:4;stroke-miterlimit:4;stroke-dasharray:none;stroke-opacity:1" sodipodi:type="arc"/>
    </g>
    <path sodipodi:type="arc" style="fill:#ffffff;fill-opacity:1;stroke:#000000;stroke-width:3.37811828;stroke-miterlimit:4;stroke-dasharray:none;stroke-opacity:1" id="path11135" sodipodi:cx="155" sodipodi:cy="593.07648" sodipodi:rx="42.142857" sodipodi:ry="57.857143" d="M 197.14286 593.07648 A 42.142857 57.857143 0 1 1  112.85714,593.07648 A 42.142857 57.857143 0 1 1  197.14286 593.07648 z" transform="matrix(1.4495132,0,0,1.3127023,171.60254,-146.97183)" inkscape:export-filename="/home/felipe/Documentos/desenhos/livroaberto2.png" inkscape:export-xdpi="27.959999" inkscape:export-ydpi="27.959999"/>
    <path style="fill:#ff7f00;fill-opacity:1;stroke:#000000;stroke-width:2.29999995;stroke-miterlimit:4;stroke-opacity:1" d="M 419.2209,541.9795 C 419.2209,560.11664 411.02661,587.69378 395.64947,587.69378 C 380.27232,587.69378 372.07804,560.11664 372.07804,541.9795 C 372.07804,523.84236 378.84375,519.12236 394.2209,519.12236 C 409.59804,519.12236 419.2209,523.84236 419.2209,541.9795 z " id="path11137" sodipodi:nodetypes="csssc" inkscape:export-filename="/home/felipe/Documentos/desenhos/livroaberto2.png" inkscape:export-xdpi="27.959999" inkscape:export-ydpi="27.959999"/>
    <path style="fill:#683d1b;fill-opacity:1;stroke:#1a1a1a;stroke-width:7;stroke-miterlimit:4;stroke-dasharray:none;stroke-opacity:1" d="M 317.02052,571.21987 C 317.02052,619.5542 349.71661,641.6891 330.46698,641.6891 C 311.21734,641.6891 265.8851,632.4522 265.8851,584.11781 C 265.8851,535.78346 281.50798,496.55559 300.7576,496.55559 C 320.00724,496.55559 317.02052,522.88552 317.02052,571.21987 z " id="path11139" sodipodi:nodetypes="csssc" inkscape:export-filename="/home/felipe/Documentos/desenhos/livroaberto2.png" inkscape:export-xdpi="27.959999" inkscape:export-ydpi="27.959999"/>
    <path style="fill:#683d1b;fill-opacity:1;stroke:#1a1a1a;stroke-width:7;stroke-miterlimit:4;stroke-dasharray:none;stroke-opacity:1" d="M 474.66611,570.20972 C 474.66611,618.5441 441.97005,640.6789 461.21968,640.6789 C 480.46931,640.6789 525.80151,631.442 525.80151,583.10766 C 525.80151,534.77331 510.17871,495.54544 490.92901,495.54544 C 471.67941,495.54544 474.66611,521.87537 474.66611,570.20972 z " id="path11141" sodipodi:nodetypes="csssc" inkscape:export-filename="/home/felipe/Documentos/desenhos/livroaberto2.png" inkscape:export-xdpi="27.959999" inkscape:export-ydpi="27.959999"/>
    <path style="fill:#c87137;fill-opacity:1;stroke:#000000;stroke-width:4;stroke-miterlimit:4;stroke-dasharray:none;stroke-opacity:1" d="M 376.15107,442.65808 C 373.46836,444.2099 353.06093,444.66582 351.33979,438.10952 C 348.61216,427.71926 314.67556,437.79885 314.67556,433.06621 C 314.67556,428.33358 341.6715,426.00559 356.18223,426.00559 C 363.43759,426.00559 370.00947,426.96583 374.76752,428.51766 C 387.88689,433.95648 392.275,437.08498 376.15107,442.65808 z " id="path11143" sodipodi:nodetypes="cssscc" inkscape:export-filename="/home/felipe/Documentos/desenhos/livroaberto2.png" inkscape:export-xdpi="27.959999" inkscape:export-ydpi="27.959999"/>
    <path style="fill:#d38d5f;fill-opacity:1;stroke:#000000;stroke-width:4;stroke-miterlimit:4;stroke-dasharray:none;stroke-opacity:1" d="M 404.24451,439.81881 C 406.92722,441.37063 427.33465,441.82655 429.05579,435.27025 C 431.78342,424.87999 465.72001,434.95958 465.72001,430.22694 C 465.72001,425.49431 438.72408,423.16632 424.21335,423.16632 C 416.95799,423.16632 410.38611,424.12656 405.62806,425.67839 C 392.50869,431.11721 388.12058,434.24571 404.24451,439.81881 z " id="path11145" sodipodi:nodetypes="cssscc" inkscape:export-filename="/home/felipe/Documentos/desenhos/livroaberto2.png" inkscape:export-xdpi="27.959999" inkscape:export-ydpi="27.959999"/>
    <path style="fill:none;fill-rule:evenodd;stroke:#683d1b;stroke-width:10;stroke-linecap:butt;stroke-linejoin:miter;stroke-miterlimit:4;stroke-dasharray:none;stroke-opacity:1" d="M 366.91315,415.13138 C 381.09073,411.31754 382.70311,409.89238 387.60402,410.3227 C 395.87947,411.0493 392.76398,410.65257 417.09206,412.34532" id="path6625" sodipodi:nodetypes="csc" inkscape:export-filename="/home/felipe/Documentos/desenhos/livroaberto2.png" inkscape:export-xdpi="27.959999" inkscape:export-ydpi="27.959999"/>
    <g id="g6655" transform="matrix(1.4228999,0,0,2.2489039,-412.56947,-963.24108)" inkscape:export-filename="/home/felipe/Documentos/desenhos/livroaberto2.png" inkscape:export-xdpi="27.959999" inkscape:export-ydpi="27.959999">
      <path transform="translate(193.57143,87.857151)" d="M 400 561.64789 A 7.8571429 9.2857141 0 1 1  384.28571,561.64789 A 7.8571429 9.2857141 0 1 1  400 561.64789 z" sodipodi:ry="9.2857141" sodipodi:rx="7.8571429" sodipodi:cy="561.64789" sodipodi:cx="392.14285" id="path6657" style="opacity:1;fill:#000000;fill-opacity:1;stroke:#1a1a1a;stroke-width:4;stroke-miterlimit:4;stroke-dasharray:none;stroke-opacity:1" sodipodi:type="arc"/>
      <path transform="matrix(0.5135895,0,0,0.7567948,344.36604,217.07805)" d="M 470 569.50507 A 2.8571429 5.7142859 0 1 1  464.28571,569.50507 A 2.8571429 5.7142859 0 1 1  470 569.50507 z" sodipodi:ry="5.7142859" sodipodi:rx="2.8571429" sodipodi:cy="569.50507" sodipodi:cx="467.14285" id="path6659" style="opacity:1;fill:#ffffff;fill-opacity:1;stroke:#ffffff;stroke-width:4;stroke-miterlimit:4;stroke-dasharray:none;stroke-opacity:1" sodipodi:type="arc"/>
    </g>
    <path sodipodi:type="arc" style="opacity:1;fill:none;fill-opacity:1;stroke:#916f6f;stroke-width:3;stroke-miterlimit:4;stroke-dasharray:none;stroke-opacity:1" id="path6065" sodipodi:cx="611.07141" sodipodi:cy="552.00507" sodipodi:rx="28.214285" sodipodi:ry="38.92857" d="M 639.2857 552.00507 A 28.214285 38.92857 0 1 1  582.85713,552.00507 A 28.214285 38.92857 0 1 1  639.2857 552.00507 z" transform="matrix(0.6363492,0,0,0.7639595,32.930898,74.938395)"/>
    <path sodipodi:type="arc" style="opacity:1;fill:none;fill-opacity:1;stroke:#916f6f;stroke-width:3;stroke-miterlimit:4;stroke-dasharray:none;stroke-opacity:1" id="path7036" sodipodi:cx="611.07141" sodipodi:cy="552.00507" sodipodi:rx="28.214285" sodipodi:ry="38.92857" d="M 639.2857 552.00507 A 28.214285 38.92857 0 1 1  582.85713,552.00507 A 28.214285 38.92857 0 1 1  639.2857 552.00507 z" transform="matrix(0.6363492,0,0,0.7639595,-16.711947,75.652673)"/>
  </g>
  <metadata>
    <rdf:RDF>
      <cc:Work>
        <dc:format>image/svg+xml</dc:format>
        <dc:type rdf:resource="http://purl.org/dc/dcmitype/StillImage"/>
        <cc:license rdf:resource="http://creativecommons.org/licenses/publicdomain/"/>
        <dc:publisher>
          <cc:Agent rdf:about="http://openclipart.org/">
            <dc:title>Open Clip Art Library</dc:title>
          </cc:Agent>
        </dc:publisher>
        <dc:title>owl</dc:title>
        <dc:date>2009-11-04T13:00:20</dc:date>
        <dc:description/>
        <dc:source>http://openclipart.org/detail/28075/owl-by-felipex</dc:source>
        <dc:creator>
          <cc:Agent>
            <dc:title>felipex</dc:title>
          </cc:Agent>
        </dc:creator>
        <dc:subject>
          <rdf:Bag>
            <rdf:li>media</rdf:li>
            <rdf:li>clip art</rdf:li>
            <rdf:li>public domain</rdf:li>
            <rdf:li>image</rdf:li>
            <rdf:li>svg</rdf:li>
            <rdf:li>owl</rdf:li>
            <rdf:li>cartoon</rdf:li>
            <rdf:li>coruja</rdf:li>
            <rdf:li>cabor</rdf:li>
            <rdf:li>animal</rdf:li>
            <rdf:li>bird</rdf:li>
            <rdf:li>owl</rdf:li>
            <rdf:li>cartoon</rdf:li>
            <rdf:li>coruja</rdf:li>
            <rdf:li>cabor</rdf:li>
            <rdf:li>animal</rdf:li>
            <rdf:li>bird</rdf:li>
          </rdf:Bag>
        </dc:subject>
      </cc:Work>
      <cc:License rdf:about="http://creativecommons.org/licenses/publicdomain/">
        <cc:permits rdf:resource="http://creativecommons.org/ns#Reproduction"/>
        <cc:permits rdf:resource="http://creativecommons.org/ns#Distribution"/>
        <cc:permits rdf:resource="http://creativecommons.org/ns#DerivativeWorks"/>
      </cc:License>
    </rdf:RDF>
  </metadata>
</svg>
